# xmcd
#
# Track frame offsets:
#	150
#	26593
#	43625
#	64328
#	84921
#	110816
#	141511
#	164944
#	194660
#	215058
#	242797
#	264886
#
# Disc length: 3754 seconds
#
# Revision: 1
# Processed by: cddbd v1.5.2PL0 Copyright (c) Steve Scherf et al.
# Submitted via: EZCDAudioConverter 4.0.2.1
#
DISCID=bd0ea80c
DTITLE=Linsey Alexander - Been There Done That
DYEAR=2012
DGENRE=Blues
TTITLE0=Raffle Ticket
TTITLE1=Bad Man
TTITLE2=Been There Done That
TTITLE3=I Had a Dream
TTITLE4=Looks Like It's Going To Rain
TTITLE5=My Mama Gave Me the Blues
TTITLE6=Going Back To My Old Time Used To Be
TTITLE7=The Same Thing I Could Tell Myself
TTITLE8=Big Woman
TTITLE9=Going Up On the Roof
TTITLE10=I'm Moving
TTITLE11=Saving Robert Johnson
EXTD=
EXTT0=
EXTT1=
EXTT2=
EXTT3=
EXTT4=
EXTT5=
EXTT6=
EXTT7=
EXTT8=
EXTT9=
EXTT10=
EXTT11=
PLAYORDER=
